<svg id="Layer_1" data-name="Layer 1" xmlns="http://www.w3.org/2000/svg" xmlns:xlink="http://www.w3.org/1999/xlink" viewBox="0 0 88 88.04"><defs><style>.cls-1{fill:#f2dece;stroke:#efd8c5;}.cls-1,.cls-2,.cls-3,.cls-4,.cls-5,.cls-6{stroke-miterlimit:10;}.cls-1,.cls-2,.cls-3,.cls-4{stroke-width:3px;}.cls-2{fill:url(#linear-gradient);stroke:url(#linear-gradient-2);}.cls-3{fill:url(#linear-gradient-3);stroke:url(#linear-gradient-4);}.cls-4{fill:#231f20;stroke:#231f20;}.cls-5,.cls-6{fill:none;stroke-width:2px;}.cls-5{stroke:url(#linear-gradient-5);}.cls-6{stroke:url(#linear-gradient-6);}.cls-7{fill:url(#linear-gradient-7);}.cls-8{fill:#e8b8bf;}</style><linearGradient id="linear-gradient" x1="513.74" y1="360.39" x2="513.74" y2="416.94" gradientUnits="userSpaceOnUse"><stop offset="0" stop-color="#020202"/><stop offset="0.34" stop-color="#040304"/><stop offset="0.52" stop-color="#0b070c"/><stop offset="0.67" stop-color="#170e1a"/><stop offset="0.8" stop-color="#28172d"/><stop offset="0.91" stop-color="#3e2346"/><stop offset="1" stop-color="#553060"/></linearGradient><linearGradient id="linear-gradient-2" x1="513.73" y1="358.89" x2="513.73" y2="418.44" xlink:href="#linear-gradient"/><linearGradient id="linear-gradient-3" x1="443.41" y1="360.39" x2="443.41" y2="416.94" xlink:href="#linear-gradient"/><linearGradient id="linear-gradient-4" x1="443.42" y1="358.89" x2="443.42" y2="418.44" xlink:href="#linear-gradient"/><linearGradient id="linear-gradient-5" x1="13.61" y1="41.71" x2="41.08" y2="57.58" gradientUnits="userSpaceOnUse"><stop offset="0" stop-color="#13c2e9"/><stop offset="0.35" stop-color="#7b8dc3"/><stop offset="0.51" stop-color="#a677b4"/><stop offset="0.61" stop-color="#af72a9"/><stop offset="0.77" stop-color="#c7668b"/><stop offset="0.99" stop-color="#ee525c"/><stop offset="1" stop-color="#f0515a"/></linearGradient><linearGradient id="linear-gradient-6" x1="50.88" y1="41.71" x2="78.36" y2="57.58" xlink:href="#linear-gradient-5"/><linearGradient id="linear-gradient-7" x1="477.71" y1="376.12" x2="483.79" y2="379.63" xlink:href="#linear-gradient-5"/></defs><title>v4-logoxxxhdpi</title><g id="Face"><path class="cls-1" d="M489.61,338.77c0-1.59.08-3.15.23-4.68a41.14,41.14,0,0,0-4.58-1c.26.6.49,1.22.69,1.85,4.52,14.54-8.29,31.45-28.61,37.75a50.29,50.29,0,0,1-20.24,2.11,41.4,41.4,0,0,0,82.8-.87c0-.15,0-.29,0-.44a18.34,18.34,0,0,1-5.06.72C500.9,374.19,489.61,358.33,489.61,338.77Z" transform="translate(-434.58 -330.4)"/><g id="Hair"><path class="cls-2" d="M509.07,360.39a12,12,0,0,1,12,12v32.56a12,12,0,0,1-12,12H506.4l.48-56.56Z" transform="translate(-434.58 -330.4)"/><path class="cls-3" d="M448.08,360.39a12,12,0,0,0-12,12v32.56a12,12,0,0,0,12,12h2.66l-.48-56.56Z" transform="translate(-434.58 -330.4)"/><path class="cls-4" d="M457.84,373.06c21.82-6.46,35.58-23.79,30.73-38.69a19.91,19.91,0,0,0-.74-1.9,46.84,46.84,0,0,0-7.27-.57c-24.56,0-44.47,19-44.47,42.43,0,.3,0,.6,0,.89A56.48,56.48,0,0,0,457.84,373.06Z" transform="translate(-434.58 -330.4)"/><path class="cls-4" d="M489.86,333c-.15,1.59-.23,3.21-.23,4.86,0,20.31,11.72,36.78,26.18,36.78a19,19,0,0,0,5.26-.74A43,43,0,0,0,489.86,333Z" transform="translate(-434.58 -330.4)"/></g><g id="Glass"><rect class="cls-5" x="12.47" y="34.77" width="29.75" height="29.75" rx="14.87" ry="14.87"/><rect class="cls-6" x="49.75" y="34.77" width="29.75" height="29.75" rx="14.87" ry="14.87"/><path class="cls-7" d="M477,378.87h7.53a1,1,0,0,0,0-2H477a1,1,0,0,0,0,2Z" transform="translate(-434.58 -330.4)"/></g><path class="cls-8" d="M474.91,404.74c3.63,2.77,8.77,2.84,11.93-.67,1.08-1.19-.69-3-1.77-1.77-2.49,2.76-6.13,2.4-8.9.28-1.28-1-2.52,1.19-1.26,2.16Z" transform="translate(-434.58 -330.4)"/></g></svg>